<svg width="1200" height="1200" xmlns="http://www.w3.org/2000/svg" xmlns:xlink="http://www.w3.org/1999/xlink" version="1.1"><g transform="scale(11.650737046703767) translate(0.2998883989122181, 14.238885667588974)">                        <g fill="#ffffff"><path d="M46.08 15 q0.84 0 1.47 0.63 t0.63 1.47 l0 40.2 q0 0.84 -0.63 1.47 t-1.47 0.63 l-4.56 0 q-0.9 0 -1.5 -0.63 t-0.6 -1.47 l0 -27.12 l-11.1 14.28 q-0.66 0.78 -1.68 0.78 l0 0 q-0.48 0 -0.96 -0.21 t-0.72 -0.63 l-19.68 -26.04 q-0.36 -0.42 -0.42 -1.05 t0.24 -1.14 t0.78 -0.84 t1.08 -0.33 l5.28 0 q1.02 0 1.68 0.84 l12.72 16.8 l12.42 -16.8 q0.66 -0.84 1.74 -0.84 l5.28 0 z M11.52 44.1 q0.84 0 1.47 0.6 t0.63 1.5 l0 11.1 q0 0.84 -0.63 1.47 t-1.47 0.63 l-4.56 0 q-0.84 0 -1.47 -0.63 t-0.63 -1.47 l0 -11.1 q0 -0.9 0.63 -1.5 t1.47 -0.6 l4.56 0 z M97.38 56.58 q0.42 0.96 -0.21 1.95 t-1.71 0.99 l-39.96 0 q-0.54 0 -1.02 -0.27 t-0.72 -0.69 q-0.66 -0.96 -0.18 -1.98 l1.86 -4.38 q0.24 -0.6 0.78 -0.96 t1.14 -0.36 l27.96 0 l-9.84 -23.52 l-8.04 19.2 q-0.24 0.6 -0.75 0.93 t-1.17 0.33 l-5.04 0 q-1.14 0 -1.8 -0.96 q-0.24 -0.42 -0.3 -0.96 t0.12 -1.02 l12.18 -28.56 q0.24 -0.6 0.75 -0.96 t1.17 -0.36 l5.76 0 q0.66 0 1.17 0.36 t0.75 0.96 z"/></g>        </g></svg>